<svg width="33" height="25" viewBox="0 0 33 25" fill="none" xmlns="http://www.w3.org/2000/svg">
<path d="M18.5625 20.7034C19.7017 20.7034 20.625 21.6303 20.625 22.7738C20.625 23.9173 19.7017 24.8441 18.5625 24.8441H14.4375C13.2983 24.8441 12.375 23.9173 12.375 22.7738C12.375 21.6303 13.2983 20.7034 14.4375 20.7034H18.5625ZM24.75 10.3517C25.8892 10.3517 26.8125 11.2786 26.8125 12.4221C26.8125 13.5655 25.8892 14.4924 24.75 14.4924H8.25C7.11084 14.4924 6.1875 13.5655 6.1875 12.4221C6.1875 11.2786 7.11084 10.3517 8.25 10.3517H24.75ZM30.9375 0C32.0767 0 33 0.926851 33 2.07034C33 3.21383 32.0767 4.14068 30.9375 4.14068H2.0625C0.92334 4.14068 0 3.21383 0 2.07034C0 0.926851 0.92334 0 2.0625 0H30.9375Z" fill="black"/>
</svg>
