<svg width="45" height="40" viewBox="0 0 45 40" fill="none" xmlns="http://www.w3.org/2000/svg">
<path id="Vector" d="M39.9749 5.46639C38.9749 4.48324 37.7876 3.70333 36.4809 3.17122C35.1741 2.63911 33.7735 2.36523 32.359 2.36523C30.9445 2.36523 29.5438 2.63911 28.2371 3.17122C26.9303 3.70333 25.743 4.48324 24.7431 5.46639L22.6678 7.50584L20.5925 5.46639C18.5726 3.48141 15.8331 2.36626 12.9766 2.36626C10.1201 2.36626 7.38053 3.48141 5.36067 5.46639C3.3408 7.45137 2.20605 10.1436 2.20605 12.9508C2.20605 15.758 3.3408 18.4502 5.36067 20.4351L7.43595 22.4746L22.6678 37.4433L37.8996 22.4746L39.9749 20.4351C40.9753 19.4525 41.7689 18.2857 42.3104 17.0015C42.8518 15.7173 43.1305 14.3408 43.1305 12.9508C43.1305 11.5607 42.8518 10.1843 42.3104 8.90006C41.7689 7.61586 40.9753 6.44909 39.9749 5.46639Z" stroke="white" stroke-width="3.34077" stroke-linecap="round" stroke-linejoin="round"/>
</svg>
