<svg width="12" height="24" viewBox="0 0 12 24" fill="none" xmlns="http://www.w3.org/2000/svg">
<path d="M11.8393 11.9834C11.8186 12.2165 11.7226 12.4371 11.5651 12.6133L2.50724 22.8316C2.31355 23.0641 2.03159 23.21 1.72575 23.2358C1.41991 23.2614 1.11642 23.1651 0.885022 22.9684C0.653421 22.7717 0.513627 22.4918 0.497634 22.1927C0.481641 21.8935 0.590628 21.6009 0.799923 21.3819L9.21227 11.8885L0.799924 2.39511C0.590634 2.17608 0.481642 1.88346 0.497635 1.5843C0.513628 1.28515 0.653417 1.00523 0.885023 0.808559C1.11643 0.611871 1.4199 0.515552 1.72575 0.541172C2.03159 0.566986 2.31355 0.712817 2.50724 0.945333L11.5651 11.1637C11.7666 11.3894 11.8656 11.6853 11.8393 11.9835L11.8393 11.9834Z" fill="#222222"/>
</svg>
