<svg width="34" height="34" viewBox="0 0 34 34" fill="none" xmlns="http://www.w3.org/2000/svg">
<path fill-rule="evenodd" clip-rule="evenodd" d="M14.4218 0.162796C10.5983 0.751306 7.34108 2.47067 4.58777 5.35384C2.3894 7.6559 0.942083 10.4488 0.222597 13.7774C-0.0967811 15.2551 -0.0671645 18.8808 0.277256 20.4643C0.777306 22.7636 1.77878 25.0328 3.12273 26.9125C4.00482 28.146 5.83738 29.9597 7.10689 30.8555C8.21539 31.6378 10.4254 32.7652 11.6203 33.158C16.607 34.7975 22.1767 34.014 26.5429 31.0588C27.8259 30.1905 29.7112 28.3863 30.6682 27.111C33.7111 23.0567 34.7465 17.6962 33.456 12.6794C31.7767 6.15117 26.1942 1.15368 19.469 0.158236C18.0315 -0.0544619 15.8208 -0.052524 14.4218 0.162796ZM15.5081 10.4867C15.5081 10.1248 15.4374 9.9322 15.2274 9.72304C15.0289 9.52504 14.8209 9.4432 14.5165 9.4432C14.1042 9.4432 13.9322 9.59651 10.4259 13.0867C6.82513 16.6709 6.76555 16.7377 6.76555 17.1921C6.76555 17.6464 6.82627 17.7145 10.4215 21.2997C13.9378 24.806 14.0941 24.9453 14.5122 24.9453C15.1062 24.9453 15.5081 24.5445 15.5081 23.9521C15.5081 23.5388 15.388 23.3989 12.9353 20.9558C11.5202 19.5462 10.3624 18.3541 10.3624 18.3065C10.3624 18.259 14.0673 18.2201 18.5956 18.2201H26.8287V17.1943V16.1684H18.5703H10.3119L12.91 13.5695C15.4806 10.9982 15.5081 10.9655 15.5081 10.4867Z" fill="#2F2F2F"/>
</svg>
