<svg width="39" height="39" viewBox="0 0 39 39" fill="none" xmlns="http://www.w3.org/2000/svg">
<path id="Vector" d="M34.8123 2.7885H30.6251V1.39425C30.6251 0.614996 30.0095 0 29.2294 0C28.4491 0 27.8744 0.615025 27.8744 1.39425V2.7885H20.8956V1.39425C20.8956 0.614996 20.2799 0 19.4999 0C18.7198 0 18.1041 0.615025 18.1041 1.39425V2.7885H11.1253V1.39425C11.1253 0.614996 10.5096 0 9.72958 0C8.94922 0 8.37456 0.615025 8.37456 1.39425V2.7885H4.18743C1.88856 2.7885 0 4.63385 0 6.97154V34.817C0 37.1134 1.88856 39 4.18743 39H34.8126C37.1114 39 39 37.1134 39 34.817L38.9997 6.97154C38.9997 4.63414 37.1111 2.7885 34.8123 2.7885ZM36.2083 34.7759C36.2083 35.5551 35.5926 36.1701 34.8126 36.1701L4.18743 36.1704C3.40736 36.1704 2.79171 35.5554 2.79171 34.7762L2.79143 15.2967H36.2081L36.2083 34.7759Z" fill="#444444"/>
</svg>
