<svg width="33" height="34" viewBox="0 0 33 34" fill="none" xmlns="http://www.w3.org/2000/svg">
<path fill-rule="evenodd" clip-rule="evenodd" d="M14.768 0.0355036C7.36819 0.994701 1.74408 6.2616 0.201961 13.6765C0.0443611 14.4345 0 15.1621 0 16.9904C0 19.6281 0.0835922 20.2288 0.737397 22.2887C2.47434 27.762 6.87042 32.0215 12.2481 33.4421C17.8842 34.9308 23.717 33.3983 27.8342 29.3467C30.3552 26.8658 32.0027 23.8516 32.7335 20.3829C33.0888 18.6965 33.0888 15.2842 32.7335 13.5979C31.865 9.4755 29.6225 5.86599 26.3684 3.35293C24.4514 1.87231 21.7927 0.668798 19.5049 0.245993C18.53 0.0657859 15.5545 -0.0664269 14.768 0.0355036ZM13.4038 10.408C10.8767 7.83787 10.2882 7.29519 9.90672 7.18332C9.33127 7.01454 9.02332 7.01957 8.51362 7.2064C7.28348 7.65709 6.61641 8.81843 6.87198 10.0647C6.98745 10.6272 7.1018 10.7617 10.0421 13.7934L13.0926 16.9385L10.245 19.8498C8.6788 21.451 7.26798 22.9838 7.11005 23.2561C6.42403 24.438 7.01397 26.0776 8.32783 26.6403C8.80698 26.8455 9.59899 26.8714 10.0517 26.6966C10.2243 26.63 11.7318 25.179 13.4018 23.4722L16.4381 20.3688L19.4762 23.4642C22.772 26.8221 22.8602 26.8877 23.9536 26.7948C25.4654 26.6662 26.5337 24.9305 25.964 23.5288C25.8507 23.2503 24.7671 22.051 22.8181 20.0471L19.8449 16.9904L22.7559 13.9907C24.5528 12.1391 25.7568 10.807 25.9018 10.51C26.0334 10.2402 26.1355 9.81351 26.1342 9.53869C26.1277 8.24627 24.9374 7.05202 23.6531 7.04939C22.9876 7.04802 22.5021 7.41232 20.5638 9.36751C19.491 10.4497 18.1248 11.8217 17.5277 12.4166L16.4422 13.4982L13.4038 10.408Z" fill="#FF8064"/>
</svg>
