<svg width="85" height="65" viewBox="0 0 85 65" fill="none" xmlns="http://www.w3.org/2000/svg">
<path id="Vector" d="M5.24773 21.8796L11.7845 53.2338C11.7845 53.2659 11.7949 53.2876 11.806 53.3197L13.3682 60.8027C13.4104 60.9953 13.4853 61.1559 13.581 61.3164C13.5913 61.3381 13.6128 61.3485 13.6343 61.3702C13.73 61.4986 13.836 61.6166 13.9635 61.7129C14.0169 61.745 14.0695 61.7667 14.1229 61.7988C14.2289 61.863 14.3461 61.9168 14.4736 61.9489C14.5055 61.9593 14.527 61.981 14.5589 61.981C23.7952 63.9933 33.1057 65 42.4268 65C51.7483 65 61.0693 63.9934 70.3365 61.981C70.3684 61.9705 70.3899 61.9489 70.4218 61.9489C70.5493 61.9168 70.6553 61.863 70.7724 61.7988C70.8258 61.7667 70.8896 61.745 70.9318 61.7025C71.0594 61.6061 71.155 61.4994 71.2506 61.3709C71.2721 61.3493 71.2929 61.3284 71.3144 61.3067C71.41 61.1566 71.4842 60.9856 71.5272 60.7929L73.0893 53.3205C73.0997 53.2884 73.1108 53.2562 73.1108 53.2137L79.6476 21.8595C81.4544 21.4958 83.1232 20.425 84.1117 18.6912C85.9399 15.5011 84.856 11.4121 81.6879 9.55939C78.5206 7.71797 74.4608 8.80967 72.6213 12.0005C71.6538 13.7023 71.5263 15.6513 72.0794 17.3851L67.849 20.5005L64.6499 13.2102C65.5745 12.2574 66.1483 10.9617 66.1483 9.52728C66.1483 6.62622 63.81 4.27111 60.9296 4.27111C58.0493 4.27111 55.711 6.62622 55.711 9.52728C55.711 10.9617 56.2848 12.2678 57.2204 13.2102L52.4163 24.1503L46.9211 11.6151C48.26 10.395 49.1216 8.63952 49.1216 6.68012C49.1216 2.99722 46.1456 0 42.4891 0C38.8327 0 35.8567 2.99741 35.8567 6.68012C35.8567 8.63876 36.7174 10.3839 38.0572 11.6151L32.5515 24.1721L27.7369 13.2207C28.6615 12.2679 29.2464 10.9723 29.2464 9.53779C29.2464 6.63673 26.9081 4.28162 24.0278 4.28162C21.1474 4.28162 18.8091 6.63673 18.8091 9.53779C18.8091 10.9722 19.3829 12.2678 20.3074 13.2207L17.1084 20.4997L12.8995 17.406C13.4629 15.6288 13.3035 13.6701 12.3575 12.0214C11.4649 10.4801 10.0406 9.37721 8.32943 8.91728C6.61821 8.45735 4.83222 8.70297 3.31232 9.59156C0.155425 11.4113 -0.938757 15.5116 0.878362 18.7233C1.76062 20.3915 3.40798 21.5049 5.24674 21.8798L5.24773 21.8796ZM68.7008 59.1655C51.2379 62.8266 33.5731 62.8266 16.1535 59.1655L15.2816 54.9584C24.2844 56.8103 33.3399 57.7737 42.4055 57.7737C51.4721 57.7737 60.549 56.7992 69.5731 54.9584L68.7008 59.1655ZM75.2376 13.5736C75.8967 12.4281 77.0977 11.7755 78.3307 11.7755C78.9364 11.7755 79.5421 11.9256 80.1056 12.2571C81.8064 13.2421 82.3906 15.4472 81.4127 17.16C80.4244 18.873 78.2454 19.4614 76.5448 18.4765C74.8336 17.4916 74.2492 15.2864 75.2376 13.5736ZM60.8885 7.37579C62.0792 7.37579 63.0355 8.35027 63.0355 9.54871C63.0355 10.7479 62.068 11.7216 60.8885 11.7216C59.7091 11.7216 58.7311 10.7472 58.7311 9.54871C58.7311 8.34948 59.6986 7.37579 60.8885 7.37579ZM59.8787 14.6982C60.2079 14.7624 60.5379 14.805 60.8885 14.805C61.2392 14.805 61.5795 14.7624 61.9087 14.6982L65.2783 22.3842L54.9367 29.9955L54.0544 27.9831L59.8787 14.6982ZM42.4373 3.115C44.4034 3.115 45.9983 4.72044 45.9983 6.70156C45.9983 8.6818 44.4043 10.2881 42.4373 10.2881C40.4712 10.2881 38.8763 8.68268 38.8763 6.70156C38.8763 4.72056 40.4711 3.115 42.4373 3.115ZM23.9647 7.37579C25.1554 7.37579 26.1222 8.35027 26.1222 9.54871C26.1222 10.7479 25.1546 11.7216 23.9647 11.7216C22.7741 11.7216 21.8177 10.7472 21.8177 9.54871C21.8177 8.34948 22.7741 7.37579 23.9647 7.37579ZM22.9446 14.6982C23.2738 14.7624 23.614 14.805 23.9647 14.805C24.3154 14.805 24.6453 14.7624 24.9745 14.6982L30.8204 28.0047L29.9486 29.9955L19.5852 22.3737L22.9446 14.6982ZM29.6719 33.6247C29.7038 33.6463 29.7357 33.6351 29.7676 33.6568C29.8313 33.6994 29.8847 33.7531 29.9588 33.7957C30.1605 33.8816 30.3733 33.9241 30.5749 33.9241C30.8404 33.9241 31.0954 33.8382 31.3297 33.6993C31.4038 33.6568 31.4572 33.5926 31.5314 33.5283C31.627 33.4425 31.7441 33.3895 31.8183 33.2819C31.8605 33.2177 31.8717 33.143 31.9139 33.0788C31.9354 33.0467 31.9673 33.0251 31.9881 32.9929L33.9327 28.5716V28.5611L40.7032 13.1136C41.2555 13.2637 41.8301 13.3705 42.4358 13.3705C43.0415 13.3705 43.6154 13.2637 44.1685 13.1136L50.9174 28.4969C50.9389 28.5507 50.9597 28.6037 50.9916 28.6679L52.8939 33.0034C52.9154 33.0355 52.9473 33.0572 52.9681 33.0893C52.9999 33.1535 53.0103 33.2282 53.0637 33.2924C53.1378 33.3992 53.255 33.4529 53.3506 33.5388C53.4144 33.5926 53.4678 33.6673 53.5523 33.7098C53.7858 33.8487 54.0409 33.9346 54.307 33.9346C54.5087 33.9346 54.7215 33.892 54.9231 33.8062C54.9973 33.7741 55.0507 33.7098 55.1144 33.6673C55.1463 33.6456 55.1782 33.6568 55.21 33.6352L73.6507 20.0717C74.0548 20.4787 74.5011 20.864 75.0216 21.1634C75.4998 21.4419 75.9995 21.6346 76.5096 21.7839L70.2812 51.693C51.7767 55.6753 33.06 55.6753 14.6193 51.693L8.39095 21.7935C8.91141 21.6434 9.42223 21.4403 9.90042 21.1618C10.4209 20.8623 10.8783 20.4979 11.2824 20.091L29.6719 33.6247ZM4.76862 12.2682C5.32097 11.9471 5.92743 11.7761 6.5539 11.7761C6.86232 11.7761 7.17 11.8186 7.46804 11.8941C8.38218 12.1405 9.15767 12.7289 9.63666 13.5533C10.2743 14.6666 10.2743 16.0474 9.64704 17.1607C9.32824 17.7065 8.89229 18.1456 8.32884 18.4667C6.62809 19.4621 4.40687 18.8095 3.47117 17.1711C2.48363 15.4477 3.06787 13.2425 4.76862 12.2682Z" fill="#FFA800"/>
</svg>
