<svg width="34" height="34" viewBox="0 0 34 34" fill="none" xmlns="http://www.w3.org/2000/svg">
<path fill-rule="evenodd" clip-rule="evenodd" d="M14.0342 0.186463C10.9826 0.743847 8.27821 2.03272 5.87283 4.07615C3.67118 5.94651 1.77845 8.75868 0.843498 11.5488C0.261539 13.2855 0.0906956 14.3003 0.0242317 16.4142C-0.0295562 18.1236 -0.00363694 18.6184 0.202835 19.8267C1.12328 25.2137 4.43209 29.7016 9.34095 32.2215C10.5805 32.8577 11.7109 33.2655 13.2348 33.6262C14.8996 34.0203 17.7871 34.1196 19.5458 33.8432C27.0718 32.6607 32.8552 26.7313 33.8491 19.1788C34.5468 13.8777 32.8074 8.78816 28.9994 4.98814C26.5444 2.53812 23.7119 0.992322 20.3151 0.248611C18.9345 -0.0536722 15.5332 -0.0873733 14.0342 0.186463ZM13.2642 8.47068C14.3006 8.69036 15.4962 9.33869 16.3084 10.1215L16.9763 10.7652L17.669 10.1139C18.5039 9.32886 19.954 8.57955 20.9855 8.40031C21.9521 8.23226 22.9497 8.40145 24.0366 8.91782C26.9088 10.2823 27.6491 13.7021 25.8698 17.3853C24.5341 20.1499 21.5831 22.9136 18.0985 24.6631L16.9463 25.2418L15.8614 24.6886C10.8591 22.1384 7.55761 18.1676 7.11886 14.1737C6.87835 11.9854 8.00961 9.83495 9.88373 8.91771C11.097 8.32388 12.0052 8.20381 13.2642 8.47068Z" fill="#2F2F2F"/>
</svg>
