<svg width="33" height="33" viewBox="0 0 33 33" fill="none" xmlns="http://www.w3.org/2000/svg">
<path d="M26.0425 7.45245L18.9337 3.3412C17.5725 2.55745 15.4412 2.55745 14.08 3.3412L6.90249 7.47995C4.05624 9.40495 3.89124 9.6937 3.89124 12.7599V20.2262C3.89124 23.2924 4.05624 23.5949 6.95749 25.5474L14.0662 29.6587C14.7537 30.0574 15.6337 30.2499 16.5 30.2499C17.3662 30.2499 18.2462 30.0574 18.92 29.6587L26.0975 25.5199C28.9437 23.5949 29.1087 23.3062 29.1087 20.2399V12.7599C29.1087 9.6937 28.9437 9.40495 26.0425 7.45245Z" fill="#F5F5F5"/>
<path d="M16.5 20.9687C18.968 20.9687 20.9688 18.968 20.9688 16.5C20.9688 14.0319 18.968 12.0312 16.5 12.0312C14.032 12.0312 12.0312 14.0319 12.0312 16.5C12.0312 18.968 14.032 20.9687 16.5 20.9687Z" fill="#8974F6"/>
</svg>
