<svg width="25" height="22" viewBox="0 0 25 22" fill="none" xmlns="http://www.w3.org/2000/svg">
<path d="M24.053 10.2111C24.053 9.15887 23.3213 8.09384 21.9238 8.09384H15.5881C16.4932 6.4951 16.7595 4.24649 16.1302 2.60151C15.668 1.39146 14.7847 0.685213 13.6418 0.613449L13.6233 0.611953C12.8795 0.56692 12.2358 1.11711 12.1738 1.85025C12.0109 3.48204 11.2868 6.36841 10.2491 7.3932C9.37532 8.25595 8.62741 8.61737 7.38746 9.21595C7.20806 9.3027 7.01201 9.39724 6.80469 9.49928C6.80839 9.54364 6.81075 9.58784 6.81075 9.63321V19.8598C6.96036 19.9105 7.10811 19.9607 7.25333 20.0099C9.29957 20.7063 11.068 21.3075 13.7708 21.3075H18.8929C20.2907 21.3075 21.0221 20.2422 21.0221 19.1903C21.0221 18.878 20.958 18.565 20.8309 18.2783C21.2964 18.1957 21.704 17.9746 22.0059 17.6362C22.3486 17.2517 22.5374 16.7407 22.5374 16.1972C22.5374 15.8859 22.4733 15.573 22.3467 15.287C23.4689 15.0958 24.0532 14.1446 24.0532 13.2044C24.0532 12.659 23.8564 12.11 23.4725 11.708C23.8557 11.3057 24.053 10.7565 24.053 10.2111Z" fill="#444444"/>
<path d="M4.82972 9H0.689977C0.303447 9 0 9.28656 0 9.65161V20.0773C0 20.4423 0.303437 20.7289 0.689977 20.7289H4.82972C5.21624 20.7289 5.51932 20.4423 5.51932 20.0773L5.5195 9.65204C5.51986 9.28684 5.21643 9 4.82972 9Z" fill="#444444"/>
</svg>
