<svg xmlns="http://www.w3.org/2000/svg" width="12" height="18" viewBox="0 0 12 18" fill="none">
<path d="M5.99989 0C2.70695 0 0 2.5678 0 6.23076C0 7.53786 0.307935 8.44718 0.879873 9.4544L5.59613 17.7621V17.7619C5.67742 17.9089 5.83211 18 6 18C6.16789 18 6.32258 17.9089 6.40387 17.7619L11.1201 9.45424C11.6921 8.44718 12 7.53787 12 6.23077C12 2.56784 9.29301 3.77277e-06 6.00012 3.77277e-06L5.99989 0ZM5.99989 3.23068C7.52924 3.23068 8.76902 4.47049 8.76902 5.99987C8.76902 7.52925 7.52924 8.76906 5.99989 8.76906C4.47053 8.76906 3.23075 7.52925 3.23075 5.99987C3.23075 4.47049 4.47053 3.23068 5.99989 3.23068Z" fill="#444444"/>
</svg>