<svg width="11" height="455" viewBox="0 0 11 455" fill="none" xmlns="http://www.w3.org/2000/svg">
<path d="M5.5 0.666667C2.55448 0.666667 0.166667 3.05448 0.166667 6C0.166667 8.94552 2.55448 11.3333 5.5 11.3333C8.44552 11.3333 10.8333 8.94552 10.8333 6C10.8333 3.05448 8.44552 0.666667 5.5 0.666667ZM5.5 443.667C2.55448 443.667 0.166667 446.054 0.166667 449C0.166667 451.946 2.55448 454.333 5.5 454.333C8.44552 454.333 10.8333 451.946 10.8333 449C10.8333 446.054 8.44552 443.667 5.5 443.667ZM4.5 6L4.5 449H6.5L6.5 6H4.5Z" fill="#DDDDDD"/>
</svg>
