<svg width="336" height="27" viewBox="0 0 336 27" fill="none" xmlns="http://www.w3.org/2000/svg">
<path d="M18.1402 21.3392C15.9146 18.1802 13.6996 15.053 11.4951 11.9576C9.29054 8.86219 7.07551 5.73498 4.84998 2.57597H7.36945L18.959 18.9859C20.8696 16.2509 22.7592 13.5265 24.6278 10.8127C26.5174 8.07774 28.407 5.33215 30.2966 2.57597H32.6586L19.6519 21.3392H18.1402ZM29.3518 0.795052C27.6092 3.33922 25.877 5.87279 24.1554 8.39576C22.4338 10.9187 20.6806 13.4417 18.896 15.9647L8.21977 0.795052H1.54317L17.2899 23.1201H20.5967L36.0284 0.795052H29.3518ZM40.5005 3.27562L24.1239 27H20.0613L16.8804 23.9152L0 0H9.25905L11.747 3.27562L19.2739 14.0565C19.9248 13.1449 20.5757 12.212 21.2265 11.258C21.8984 10.2827 22.6122 9.24382 23.3681 8.14134C24.1449 7.01767 24.9847 5.79859 25.8875 4.4841C26.7904 3.14841 27.8086 1.65371 28.9424 0H37.5086L40.5005 3.27562Z" fill="black"/>
<path d="M43.6468 21.3392V2.57597H45.5364V21.3392H43.6468ZM47.2686 23.1201V0.795052H41.9147V23.1201H47.2686ZM41.1274 23.9152V0H48.0559L51.1108 3.27562V27H44.3712L41.1274 23.9152Z" fill="black"/>
<path d="M74.249 11.0035C74.7529 11.0035 75.2463 10.9505 75.7292 10.8445C76.2121 10.7173 76.6425 10.5265 77.0205 10.2721C77.4194 10.0177 77.7343 9.68905 77.9653 9.28622C78.1962 8.86219 78.3117 8.36396 78.3117 7.79152C78.3117 7.19788 78.1962 6.69965 77.9653 6.29682C77.7553 5.87279 77.4614 5.53357 77.0834 5.27915C76.7055 5.00353 76.2751 4.81272 75.7922 4.70671C75.3093 4.5795 74.8054 4.5159 74.2805 4.5159H60.8014V11.0035H74.249ZM74.2805 6.29682C74.5115 6.29682 74.7634 6.31802 75.0364 6.36042C75.3093 6.40283 75.5613 6.48763 75.7922 6.61484C76.0232 6.72085 76.2121 6.86926 76.3591 7.06007C76.5061 7.25088 76.5796 7.4947 76.5796 7.79152C76.5796 8.08834 76.4956 8.33216 76.3276 8.52297C76.1806 8.69258 75.9812 8.84099 75.7292 8.9682C75.4983 9.0742 75.2463 9.14841 74.9734 9.19081C74.7004 9.23322 74.459 9.25442 74.249 9.25442H62.565V6.29682H74.2805ZM75.9497 19.3993C76.4536 19.3993 76.9575 19.3463 77.4614 19.2403C77.9653 19.1131 78.4062 18.9223 78.7841 18.6678C79.183 18.3922 79.4979 18.053 79.7289 17.6502C79.9808 17.2261 80.1068 16.7173 80.1068 16.1237C80.1068 15.5936 80.0018 15.1272 79.7919 14.7244C79.5819 14.3216 79.2985 13.9929 78.9416 13.7385C78.5846 13.4629 78.1752 13.2615 77.7133 13.1343C77.2724 12.9859 76.8105 12.9117 76.3276 12.9117H60.8014V19.3993H75.9497ZM76.3276 14.6608C76.5376 14.6608 76.758 14.6926 76.989 14.7562C77.2409 14.7986 77.4614 14.8834 77.6503 15.0106C77.8603 15.1166 78.0282 15.265 78.1542 15.4558C78.2802 15.6466 78.3432 15.8693 78.3432 16.1237C78.3432 16.4417 78.2592 16.6961 78.0912 16.8869C77.9443 17.0777 77.7448 17.2261 77.4929 17.3322C77.2619 17.4382 76.9995 17.5124 76.7055 17.5548C76.4326 17.5972 76.1806 17.6184 75.9497 17.6184H62.565V14.6608H76.3276ZM74.2805 2.57597C75.1414 2.57597 75.9392 2.67138 76.674 2.86219C77.4089 3.053 78.0387 3.36042 78.5636 3.78445C79.1095 4.20848 79.5294 4.74912 79.8234 5.40636C80.1383 6.0636 80.3063 6.85866 80.3273 7.79152C80.3273 8.30035 80.2118 8.78799 79.9808 9.25442C79.7709 9.69965 79.5084 10.0919 79.1935 10.4311C78.8786 10.7703 78.5426 11.0459 78.1857 11.258C77.8288 11.4488 77.5243 11.5548 77.2724 11.576C77.8393 11.6184 78.4062 11.7668 78.973 12.0212C79.5399 12.2544 80.0438 12.5724 80.4847 12.9753C80.9466 13.3781 81.3245 13.8445 81.6185 14.3746C81.9124 14.9046 82.0594 15.4876 82.0594 16.1237C82.0594 17.0777 81.9019 17.894 81.587 18.5724C81.2721 19.2297 80.8312 19.7703 80.2643 20.1943C79.7184 20.5972 79.0675 20.894 78.3117 21.0848C77.5768 21.2544 76.7895 21.3392 75.9497 21.3392H58.9118V2.57597H74.2805ZM75.9497 23.1201C77.0834 23.1201 78.1332 22.9929 79.099 22.7385C80.0648 22.4629 80.8941 22.0495 81.587 21.4982C82.2798 20.9258 82.8257 20.2049 83.2246 19.3357C83.6236 18.4452 83.823 17.3746 83.823 16.1237C83.823 15.0636 83.5291 14.1201 82.9412 13.2933C82.3743 12.4664 81.5135 11.8092 80.3587 11.3216C80.6107 11.1095 80.8417 10.8657 81.0516 10.5901C81.2616 10.2933 81.44 9.98587 81.587 9.66784C81.734 9.34982 81.8494 9.0318 81.9334 8.71378C82.0174 8.37456 82.0594 8.06714 82.0594 7.79152C82.0594 6.58304 81.8704 5.54417 81.4925 4.67491C81.1146 3.78445 80.5792 3.053 79.8864 2.48057C79.2145 1.90813 78.3957 1.4841 77.4299 1.20848C76.4851 0.932862 75.4353 0.795052 74.2805 0.795052H57.1481V23.1201H75.9497ZM56.3608 0H74.2805C76.1701 0 77.8813 0.318021 79.4139 0.954063C80.9466 1.59011 82.3743 2.70318 83.697 4.29329C84.138 4.82332 84.5369 5.48056 84.8938 6.26502C85.2507 7.02827 85.5027 7.83392 85.6496 8.68198C85.7966 9.50883 85.7966 10.3251 85.6496 11.1307C85.5237 11.9364 85.1877 12.6254 84.6419 13.1979C85.1877 13.4099 85.6496 13.7703 86.0276 14.2792C86.4055 14.7668 86.7099 15.3074 86.9409 15.9011C87.1928 16.4947 87.3713 17.0989 87.4763 17.7138C87.6022 18.3286 87.6652 18.8587 87.6652 19.3039C87.6652 20.682 87.4448 21.8587 87.0039 22.8339C86.5839 23.788 85.9961 24.5724 85.2402 25.1873C84.4844 25.8233 83.5816 26.2792 82.5318 26.5548C81.482 26.8516 80.3378 27 79.099 27H59.6046L56.3608 23.9152V0Z" fill="black"/>
<path d="M95.7671 11.0035H111.797V12.9117H95.7671V19.3993H115.073V21.3392H93.8145V2.57597H115.041V4.5159H95.7671V11.0035ZM97.4993 6.29682H116.805V0.795052H92.0509V23.1201H116.836V17.6184H97.4993V14.6608H113.529V9.25442H97.4993V6.29682ZM91.2636 23.9152V0H117.592L120.647 3.27562V10.1767H115.828L117.372 11.735V16.8233L120.678 20.0989V27H94.5074L91.2636 23.9152Z" fill="black"/>
<path d="M147.301 6.42403C146.356 5.70318 145.296 5.20495 144.12 4.92933C142.965 4.65371 141.8 4.5159 140.625 4.5159H137.192C135.974 4.5159 134.83 4.65371 133.759 4.92933C132.709 5.18374 131.796 5.60777 131.019 6.20141C130.242 6.77385 129.623 7.5371 129.161 8.49117C128.72 9.44523 128.5 10.6007 128.5 11.9576C128.5 13.3357 128.72 14.5018 129.161 15.4558C129.602 16.3887 130.211 17.1519 130.988 17.7456C131.785 18.318 132.709 18.7421 133.759 19.0177C134.809 19.2721 135.953 19.3993 137.192 19.3993H140.625C141.716 19.3993 142.756 19.2827 143.742 19.0495C144.75 18.7951 145.653 18.4134 146.451 17.9046C147.249 17.3746 147.931 16.7067 148.498 15.9011C149.065 15.0742 149.474 14.0777 149.726 12.9117H141.034V11.0035H151.931V11.9576C151.931 13.7173 151.626 15.2014 151.017 16.4099C150.408 17.5972 149.59 18.5618 148.561 19.3039C147.532 20.0247 146.335 20.5442 144.971 20.8622C143.606 21.1802 142.157 21.3392 140.625 21.3392H137.192C135.659 21.3392 134.242 21.1696 132.94 20.8304C131.638 20.4912 130.505 19.9505 129.539 19.2085C128.594 18.4664 127.849 17.5018 127.303 16.3145C126.757 15.1272 126.484 13.6749 126.484 11.9576C126.484 10.2403 126.757 8.78798 127.303 7.60071C127.849 6.41343 128.594 5.44876 129.539 4.70671C130.505 3.96466 131.638 3.42403 132.94 3.08481C134.242 2.74558 135.659 2.57597 137.192 2.57597H140.625C141.401 2.57597 142.178 2.60777 142.955 2.67138C143.732 2.71378 144.488 2.81979 145.223 2.9894C145.957 3.15901 146.671 3.40283 147.364 3.72085C148.078 4.01767 148.739 4.43109 149.348 4.96113L147.301 6.42403ZM152.025 5.40636C151.29 4.43109 150.492 3.64664 149.632 3.053C148.771 2.45936 147.857 1.99293 146.892 1.65371C145.947 1.31449 144.95 1.09187 143.9 0.985864C142.85 0.858656 141.758 0.795052 140.625 0.795052H137.192C135.365 0.795052 133.696 1.00707 132.184 1.43109C130.673 1.83392 129.36 2.48056 128.248 3.37102C127.156 4.26148 126.306 5.41696 125.697 6.83746C125.088 8.23675 124.783 9.94346 124.783 11.9576C124.783 13.9717 125.088 15.689 125.697 17.1095C126.306 18.5088 127.156 19.6537 128.248 20.5442C129.36 21.4346 130.673 22.0919 132.184 22.5159C133.696 22.9187 135.365 23.1201 137.192 23.1201H140.625C142.43 23.1201 144.12 22.9293 145.695 22.5477C147.291 22.1449 148.676 21.5088 149.852 20.6396C151.028 19.7491 151.952 18.5936 152.623 17.1731C153.316 15.7527 153.663 14.0141 153.663 11.9576V9.25442H139.27V14.6608H147.459C147.123 15.2332 146.692 15.7102 146.167 16.0919C145.642 16.4735 145.065 16.7809 144.435 17.0141C143.826 17.2261 143.186 17.3852 142.514 17.4912C141.863 17.576 141.233 17.6184 140.625 17.6184H137.192C136.247 17.6184 135.355 17.523 134.515 17.3322C133.675 17.1413 132.94 16.8339 132.31 16.4099C131.68 15.9647 131.176 15.3816 130.799 14.6608C130.421 13.9399 130.232 13.0389 130.232 11.9576C130.232 10.8975 130.421 10.0071 130.799 9.28622C131.176 8.56537 131.68 7.98233 132.31 7.5371C132.961 7.09187 133.706 6.77385 134.546 6.58304C135.386 6.39223 136.268 6.29682 137.192 6.29682H140.625C141.863 6.29682 143.049 6.49823 144.183 6.90106C145.317 7.28269 146.325 7.93993 147.207 8.87279L152.025 5.40636ZM129.822 23.5972C128.647 22.5795 127.681 21.6148 126.925 20.7032C126.169 19.7915 125.571 18.8799 125.13 17.9682C124.71 17.0353 124.416 16.0919 124.248 15.1378C124.08 14.1625 123.996 13.1025 123.996 11.9576C123.996 9.79505 124.321 7.96113 124.972 6.45583C125.623 4.92933 126.526 3.68905 127.681 2.73498C128.856 1.78092 130.253 1.09187 131.869 0.667843C133.486 0.222614 135.26 0 137.192 0H140.625C141.779 0 142.892 0.0530035 143.963 0.15901C145.034 0.265017 146.073 0.487632 147.081 0.826854C148.088 1.14487 149.054 1.63251 149.978 2.28975C150.923 2.92579 151.836 3.78445 152.718 4.86572C153.348 5.50177 153.862 6.0318 154.261 6.45583C154.66 6.87986 154.975 7.24028 155.206 7.5371C155.458 7.83392 155.647 8.07774 155.773 8.26855C155.92 8.43816 156.046 8.59717 156.151 8.74558L155.206 9.41343L157.505 11.735V15.1378C157.505 17.3216 157.148 19.1661 156.434 20.6714C155.72 22.1767 154.744 23.3958 153.505 24.3286C152.267 25.2827 150.807 25.9611 149.128 26.364C147.469 26.788 145.684 27 143.774 27H140.341C138.2 27 136.205 26.7244 134.357 26.1731C132.51 25.6431 130.998 24.7845 129.822 23.5972ZM138.483 10.3675C137.853 10.4735 137.265 10.6431 136.719 10.8763C136.194 11.0883 135.733 11.3852 135.334 11.7668C134.935 12.1484 134.62 12.6254 134.389 13.1979C134.179 13.7491 134.074 14.3958 134.074 15.1378C134.074 15.6466 134.116 16.0707 134.2 16.4099C134.641 16.5583 135.113 16.6643 135.617 16.7279C136.121 16.7915 136.646 16.8233 137.192 16.8233H140.026L138.483 15.4558V10.3675Z" fill="black"/>
<path d="M181.157 6.29682C181.409 6.29682 181.672 6.31802 181.945 6.36042C182.217 6.40283 182.469 6.47703 182.7 6.58304C182.931 6.68905 183.12 6.83746 183.267 7.02827C183.435 7.21908 183.519 7.4735 183.519 7.79152C183.519 8.08834 183.435 8.33216 183.267 8.52297C183.099 8.71378 182.889 8.86219 182.637 8.9682C182.406 9.0742 182.144 9.14841 181.85 9.19081C181.577 9.23322 181.336 9.25442 181.126 9.25442H169.473V6.29682H181.157ZM181.126 11.0035C181.63 11.0035 182.123 10.9505 182.606 10.8445C183.11 10.7173 183.561 10.5265 183.96 10.2721C184.359 10.0177 184.674 9.68905 184.905 9.28622C185.157 8.86219 185.283 8.36396 185.283 7.79152C185.283 7.19788 185.167 6.68905 184.936 6.26502C184.705 5.84099 184.391 5.50177 183.992 5.24735C183.614 4.99293 183.173 4.81272 182.669 4.70671C182.186 4.5795 181.682 4.5159 181.157 4.5159H167.741V11.0035H181.126ZM183.992 12.4346C183.698 12.6042 183.372 12.7314 183.015 12.8163C182.658 12.9011 182.322 12.9859 182.008 13.0707C183.183 14.47 184.359 15.8481 185.535 17.2049C186.732 18.5618 187.928 19.9399 189.125 21.3392H186.574L179.299 12.9117H167.741V21.3392H165.788V2.57597H181.157C182.018 2.57597 182.816 2.67138 183.551 2.86219C184.307 3.053 184.947 3.36042 185.472 3.78445C186.018 4.20848 186.438 4.74912 186.732 5.40636C187.046 6.0636 187.204 6.85866 187.204 7.79152C187.204 8.9576 186.941 9.92226 186.417 10.6855C185.892 11.4276 185.094 12.0106 184.023 12.4346H183.992ZM188.968 7.79152C188.968 6.58304 188.779 5.54417 188.401 4.67491C188.023 3.78445 187.487 3.053 186.794 2.48057C186.102 1.90813 185.272 1.4841 184.307 1.20848C183.362 0.932862 182.312 0.795052 181.157 0.795052H164.088V23.1201H169.473V14.6608H178.48L185.724 23.1201H192.967L185.031 13.9293C187.655 12.7632 188.968 10.7173 188.968 7.79152ZM163.3 23.9152V0H181.157C181.976 0 182.763 0.0636041 183.519 0.190812C184.275 0.296819 185.031 0.530035 185.787 0.890459C186.564 1.25088 187.361 1.77032 188.18 2.44876C189.02 3.12721 189.912 4.02827 190.857 5.15194C191.466 5.76678 191.938 6.59364 192.274 7.63251C192.631 8.65018 192.81 9.76325 192.81 10.9717C192.81 12.371 192.505 13.6113 191.896 14.6926C191.309 15.7739 190.448 16.6537 189.314 17.3322C189.965 18.0954 190.647 18.8905 191.361 19.7173C192.075 20.5442 192.789 21.3816 193.503 22.2297C194.216 23.0565 194.92 23.8728 195.613 24.6784C196.326 25.5053 196.998 26.2792 197.628 27H188.558L185.377 23.9152L180.779 18.5406H173.315V27H166.544L163.3 23.9152Z" fill="black"/>
<path d="M214.011 19.3993C215.229 19.3993 216.362 19.2721 217.412 19.0177C218.483 18.7421 219.407 18.318 220.184 17.7456C220.981 17.1519 221.601 16.3887 222.042 15.4558C222.483 14.5018 222.703 13.3357 222.703 11.9576C222.703 10.6007 222.472 9.44523 222.01 8.49117C221.569 7.5371 220.96 6.77385 220.184 6.20141C219.407 5.60777 218.483 5.18374 217.412 4.92933C216.362 4.65371 215.229 4.5159 214.011 4.5159H210.547C209.308 4.5159 208.153 4.65371 207.082 4.92933C206.033 5.18374 205.119 5.60777 204.342 6.20141C203.566 6.77385 202.946 7.5371 202.484 8.49117C202.043 9.44523 201.823 10.6007 201.823 11.9576C201.823 13.3357 202.043 14.5018 202.484 15.4558C202.946 16.3887 203.566 17.1519 204.342 17.7456C205.119 18.3392 206.033 18.7633 207.082 19.0177C208.153 19.2721 209.308 19.3993 210.547 19.3993H214.011ZM210.547 17.6184C209.602 17.6184 208.71 17.523 207.87 17.3322C207.03 17.1413 206.295 16.8339 205.665 16.4099C205.035 15.9647 204.531 15.3816 204.153 14.6608C203.776 13.9399 203.587 13.0389 203.587 11.9576C203.587 10.8975 203.776 10.0071 204.153 9.28622C204.531 8.56537 205.035 7.98233 205.665 7.5371C206.316 7.09187 207.061 6.77385 207.901 6.58304C208.741 6.39223 209.623 6.29682 210.547 6.29682H214.011C214.935 6.29682 215.817 6.39223 216.656 6.58304C217.496 6.77385 218.231 7.09187 218.861 7.5371C219.491 7.98233 219.995 8.56537 220.373 9.28622C220.75 10.0071 220.939 10.8975 220.939 11.9576C220.939 13.0177 220.75 13.9081 220.373 14.629C220.016 15.3498 219.522 15.9329 218.892 16.3781C218.263 16.8233 217.528 17.1413 216.688 17.3322C215.848 17.523 214.956 17.6184 214.011 17.6184H210.547ZM199.839 11.9576C199.839 10.2403 200.101 8.78798 200.626 7.60071C201.172 6.41343 201.917 5.44876 202.862 4.70671C203.828 3.94346 204.962 3.40283 206.264 3.08481C207.586 2.74558 209.014 2.57597 210.547 2.57597H214.011C215.544 2.57597 216.961 2.74558 218.263 3.08481C219.564 3.42403 220.688 3.96466 221.632 4.70671C222.598 5.44876 223.343 6.41343 223.868 7.60071C224.414 8.78798 224.687 10.2403 224.687 11.9576C224.687 13.6749 224.414 15.1272 223.868 16.3145C223.343 17.5018 222.598 18.4664 221.632 19.2085C220.688 19.9505 219.564 20.4912 218.263 20.8304C216.961 21.1696 215.544 21.3392 214.011 21.3392H210.547C209.014 21.3392 207.586 21.1802 206.264 20.8622C204.962 20.523 203.828 19.9823 202.862 19.2403C201.917 18.477 201.172 17.5018 200.626 16.3145C200.101 15.1272 199.839 13.6749 199.839 11.9576ZM198.075 11.9576C198.075 13.9717 198.38 15.689 198.989 17.1095C199.618 18.5088 200.479 19.6537 201.571 20.5442C202.684 21.4346 203.996 22.0919 205.508 22.5159C207.04 22.9187 208.72 23.1201 210.547 23.1201H214.011C215.838 23.1201 217.507 22.9187 219.018 22.5159C220.53 22.0919 221.832 21.4346 222.924 20.5442C224.036 19.6537 224.897 18.5088 225.506 17.1095C226.115 15.689 226.419 13.9717 226.419 11.9576C226.419 9.94346 226.115 8.23675 225.506 6.83746C224.897 5.41696 224.036 4.26148 222.924 3.37102C221.832 2.48056 220.53 1.83392 219.018 1.43109C217.507 1.00707 215.838 0.795052 214.011 0.795052H210.547C208.72 0.795052 207.04 1.00707 205.508 1.43109C203.996 1.83392 202.684 2.48056 201.571 3.37102C200.479 4.26148 199.618 5.41696 198.989 6.83746C198.38 8.23675 198.075 9.94346 198.075 11.9576ZM197.288 11.9576C197.288 9.79505 197.613 7.96113 198.264 6.45583C198.915 4.92933 199.828 3.68905 201.004 2.73498C202.18 1.78092 203.576 1.09187 205.193 0.667843C206.83 0.222614 208.615 0 210.547 0H214.011C215.229 0 216.373 0.0742046 217.444 0.222614C218.535 0.349822 219.606 0.636041 220.656 1.08127C221.706 1.5053 222.745 2.12014 223.774 2.9258C224.824 3.71025 225.905 4.77032 227.018 6.10601C227.962 7.06007 228.739 8.32155 229.348 9.89046C229.957 11.4594 230.261 13.2085 230.261 15.1378C230.261 17.2792 229.936 19.1025 229.285 20.6078C228.655 22.1131 227.753 23.3322 226.577 24.265C225.422 25.2191 224.036 25.9081 222.42 26.3322C220.824 26.7774 219.071 27 217.16 27H213.696C211.554 27 209.56 26.7562 207.712 26.2686C205.865 25.7809 204.342 24.9435 203.146 23.7562C201.949 22.6961 200.973 21.6996 200.217 20.7668C199.461 19.8127 198.863 18.8693 198.422 17.9364C198.002 17.0035 197.708 16.0495 197.54 15.0742C197.372 14.0989 197.288 13.0601 197.288 11.9576ZM214.011 16.8233C214.83 16.8233 215.607 16.7491 216.341 16.6007C217.097 16.4311 217.759 16.1555 218.326 15.7739C218.892 15.3922 219.333 14.894 219.648 14.2792C219.984 13.6431 220.152 12.8693 220.152 11.9576C220.152 11.4488 220.089 10.9823 219.963 10.5583C219.102 10.3039 218.168 10.1767 217.16 10.1767H213.696C212.856 10.1767 212.058 10.2615 211.302 10.4311C210.547 10.6007 209.875 10.8763 209.287 11.258C208.72 11.6396 208.269 12.1484 207.933 12.7845C207.597 13.4205 207.429 14.2049 207.429 15.1378C207.429 15.6466 207.471 16.0707 207.555 16.4099C207.996 16.5583 208.468 16.6643 208.972 16.7279C209.476 16.7915 210.001 16.8233 210.547 16.8233H214.011Z" fill="black"/>
<path d="M237.189 2.57597V11.9576C237.189 13.3357 237.41 14.5018 237.851 15.4558C238.292 16.3887 238.9 17.1519 239.677 17.7456C240.475 18.318 241.399 18.7421 242.449 19.0177C243.498 19.2721 244.643 19.3993 245.881 19.3993H249.346C250.563 19.3993 251.697 19.2721 252.747 19.0177C253.818 18.7421 254.742 18.318 255.518 17.7456C256.316 17.1519 256.936 16.3887 257.377 15.4558C257.838 14.5018 258.069 13.3357 258.069 11.9576V2.57597H260.053V11.9576C260.053 13.6749 259.781 15.1272 259.235 16.3145C258.689 17.5018 257.933 18.477 256.967 19.2403C256.022 19.9823 254.899 20.523 253.597 20.8622C252.296 21.1802 250.878 21.3392 249.346 21.3392H245.881C244.349 21.3392 242.921 21.1802 241.598 20.8622C240.297 20.523 239.163 19.9823 238.197 19.2403C237.252 18.477 236.507 17.5018 235.961 16.3145C235.436 15.1272 235.174 13.6749 235.174 11.9576V2.57597H237.189ZM233.442 11.9576C233.442 13.9717 233.746 15.689 234.355 17.1095C234.964 18.5088 235.814 19.6537 236.906 20.5442C238.019 21.4346 239.331 22.0919 240.843 22.5159C242.375 22.9187 244.055 23.1201 245.881 23.1201H249.346C251.172 23.1201 252.841 22.9187 254.353 22.5159C255.886 22.0919 257.198 21.4346 258.29 20.5442C259.403 19.6537 260.263 18.5088 260.872 17.1095C261.481 15.689 261.786 13.9717 261.786 11.9576V0.795052H256.306V11.9576C256.306 13.0389 256.117 13.9399 255.739 14.6608C255.361 15.3816 254.857 15.9647 254.227 16.4099C253.597 16.8339 252.863 17.1413 252.023 17.3322C251.183 17.523 250.291 17.6184 249.346 17.6184H245.881C244.937 17.6184 244.044 17.523 243.205 17.3322C242.365 17.1413 241.63 16.8233 241 16.3781C240.37 15.9329 239.866 15.3498 239.488 14.629C239.131 13.9081 238.953 13.0177 238.953 11.9576V0.795052H233.442V11.9576ZM232.654 0H239.74L242.795 3.27562V15.1378C242.795 15.371 242.795 15.5936 242.795 15.8057C242.816 16.0177 242.848 16.2191 242.89 16.4099C243.771 16.6855 244.769 16.8233 245.881 16.8233H249.346C250.165 16.8233 250.941 16.7491 251.676 16.6007C252.432 16.4311 253.093 16.1555 253.66 15.7739C254.227 15.3922 254.679 14.894 255.015 14.2792C255.35 13.6643 255.518 12.8905 255.518 11.9576V0H262.573L265.628 3.27562V15.1378C265.628 17.2792 265.302 19.1025 264.651 20.6078C264.001 22.1131 263.098 23.3322 261.943 24.265C260.788 25.2191 259.403 25.9081 257.786 26.3322C256.169 26.7774 254.406 27 252.495 27H249.031C247.96 27 246.921 26.947 245.913 26.841C244.926 26.735 243.981 26.5548 243.079 26.3004C242.197 26.0671 241.378 25.7491 240.622 25.3463C239.866 24.9435 239.194 24.4452 238.607 23.8516C237.41 22.8127 236.423 21.8269 235.646 20.894C234.89 19.9399 234.292 18.9859 233.851 18.0318C233.41 17.0777 233.095 16.1131 232.906 15.1378C232.738 14.1413 232.654 13.0813 232.654 11.9576V0Z" fill="black"/>
<path d="M291.857 21.3392L274.882 5.59717V21.3392H273.024V2.57597H274.63L291.542 18.318V2.57597H293.431V21.3392H291.857ZM295.195 23.1201V0.795052H289.81V14.311L275.228 0.795052H271.26V23.1201H276.646V9.57244L291.258 23.1201H295.195ZM270.473 23.9152V0H275.512L289.022 12.4982V0H295.982L299.037 3.27562V27H294.124L280.488 14.3746V27H273.717L270.473 23.9152Z" fill="black"/>
<path d="M319.686 19.3993C320.904 19.3993 322.048 19.2721 323.119 19.0177C324.19 18.7633 325.114 18.3392 325.891 17.7456C326.688 17.1519 327.308 16.3887 327.749 15.4558C328.211 14.5018 328.442 13.3357 328.442 11.9576C328.442 10.5795 328.211 9.42403 327.749 8.49117C327.308 7.5371 326.688 6.76325 325.891 6.16961C325.114 5.57597 324.19 5.15194 323.119 4.89753C322.048 4.64311 320.904 4.5159 319.686 4.5159H308.475V19.3993H319.686ZM319.686 6.29682C320.631 6.29682 321.523 6.39223 322.363 6.58304C323.224 6.75265 323.969 7.06007 324.599 7.5053C325.25 7.95053 325.765 8.53357 326.143 9.25442C326.541 9.97526 326.741 10.8763 326.741 11.9576C326.741 13.0389 326.552 13.9505 326.174 14.6926C325.796 15.4134 325.282 15.9965 324.631 16.4417C323.98 16.8657 323.224 17.1731 322.363 17.364C321.523 17.5336 320.631 17.6184 319.686 17.6184H310.175V6.29682H319.686ZM319.686 2.57597C321.219 2.57597 322.636 2.74558 323.938 3.08481C325.24 3.40283 326.373 3.94346 327.339 4.70671C328.305 5.44876 329.061 6.41343 329.607 7.60071C330.153 8.78798 330.426 10.2403 330.426 11.9576C330.426 13.6749 330.153 15.1272 329.607 16.3145C329.061 17.5018 328.305 18.477 327.339 19.2403C326.373 19.9823 325.24 20.523 323.938 20.8622C322.636 21.1802 321.219 21.3392 319.686 21.3392H306.554V2.57597H319.686ZM319.686 23.1201C321.513 23.1201 323.182 22.9187 324.694 22.5159C326.227 22.1131 327.539 21.4664 328.63 20.576C329.743 19.6855 330.604 18.53 331.213 17.1095C331.843 15.689 332.158 13.9717 332.158 11.9576C332.158 9.94346 331.843 8.22615 331.213 6.80565C330.604 5.38516 329.743 4.22968 328.63 3.33922C327.539 2.44876 326.227 1.80212 324.694 1.39929C323.182 0.996466 321.513 0.795052 319.686 0.795052H304.822V23.1201H319.686ZM304.034 0H319.686C320.883 0 322.038 0.0636041 323.151 0.190812C324.263 0.296819 325.355 0.551236 326.426 0.954063C327.518 1.35689 328.599 1.95053 329.67 2.73498C330.762 3.51943 331.874 4.5795 333.008 5.91519C333.953 6.86926 334.688 8.17314 335.213 9.82686C335.737 11.4594 336 13.2297 336 15.1378C336 17.2792 335.675 19.1025 335.024 20.6078C334.373 22.1131 333.459 23.3322 332.284 24.265C331.129 25.2191 329.743 25.9081 328.127 26.3322C326.51 26.7774 324.746 27 322.836 27H307.278L304.034 23.9152V0ZM314.018 16.8233H319.686C320.526 16.8233 321.324 16.7491 322.08 16.6007C322.836 16.4311 323.497 16.1661 324.064 15.8057C324.652 15.424 325.114 14.9258 325.45 14.311C325.786 13.6749 325.954 12.8905 325.954 11.9576C325.954 11.4912 325.901 11.0247 325.796 10.5583C324.872 10.3039 323.886 10.1767 322.836 10.1767H314.018V16.8233Z" fill="black"/>
</svg>
