<svg width="34" height="50" viewBox="0 0 34 50" fill="none" xmlns="http://www.w3.org/2000/svg">
<path id="Vector" d="M16.9997 0C7.94412 0 0.5 7.13278 0.5 17.3077C0.5 20.9385 1.34682 23.4644 2.91965 26.2622L15.8894 49.3391V49.3387C16.1129 49.7469 16.5383 50 17 50C17.4617 50 17.8871 49.7469 18.1106 49.3387L31.0803 26.2618C32.6531 23.4644 33.5 20.9385 33.5 17.3077C33.5 7.1329 26.0558 1.04799e-05 17.0003 1.04799e-05L16.9997 0ZM16.9997 8.97412C21.2054 8.97412 24.6148 12.418 24.6148 16.6663C24.6148 20.9146 21.2054 24.3585 16.9997 24.3585C12.794 24.3585 9.38456 20.9146 9.38456 16.6663C9.38456 12.418 12.794 8.97412 16.9997 8.97412Z" fill="#444444"/>
</svg>
