<svg width="33" height="32" viewBox="0 0 33 32" fill="none" xmlns="http://www.w3.org/2000/svg">
<path id="Vector" fill-rule="evenodd" clip-rule="evenodd" d="M16.5042 0C7.40726 0 0 7.18223 0 16.004C0 24.8259 7.40667 32 16.5042 32C25.6017 32 33 24.8254 33 16.004C33 7.1828 25.6012 0 16.5042 0ZM16.5042 2.66694C24.115 2.66694 30.2501 8.62381 30.2501 16.0036C30.2501 23.3838 24.1153 29.3331 16.5042 29.3331C8.89305 29.3331 2.7507 23.3841 2.7507 16.0036C2.7507 8.62316 8.89372 2.66694 16.5042 2.66694ZM23.3474 9.57628H23.3477C22.9811 9.60221 22.6407 9.76917 22.4023 10.0399L14.3317 19.1234L10.5477 15.3341H10.5474C10.2917 15.0799 9.94248 14.9354 9.57626 14.9319C9.21038 14.9284 8.85819 15.0666 8.59761 15.3158C8.33836 15.5631 8.19097 15.8995 8.18673 16.2518C8.18282 16.604 8.32271 16.9436 8.57609 17.1963L13.3997 22.0275V22.0271C13.6684 22.2966 14.0418 22.4436 14.4279 22.4328C14.8143 22.4221 15.1779 22.2539 15.4303 21.9699L24.4838 11.7717C24.7218 11.5042 24.8409 11.1557 24.8141 10.8031C24.7874 10.4502 24.6175 10.1226 24.3413 9.89142C24.0661 9.66343 23.709 9.55023 23.3477 9.57616L23.3474 9.57628Z" fill="#2F2F2F"/>
</svg>
