<svg width="20" height="20" viewBox="0 0 20 20" fill="none" xmlns="http://www.w3.org/2000/svg">
<path fill-rule="evenodd" clip-rule="evenodd" d="M6.44439 0.54936C5.5599 0.829737 3.96792 1.92325 2.90691 2.9796C-2.37187 8.23518 -0.147987 17.1054 7.04772 19.4939C16.2617 22.5518 24.0216 11.0564 17.7035 3.70785C14.8269 0.362136 10.693 -0.797918 6.44439 0.54936ZM15.1403 6.07247C15.5436 6.55613 14.9827 7.56751 12.5961 10.6613C10.9124 12.8437 9.27943 14.6297 8.96786 14.6297C8.3378 14.6297 4.59614 10.759 4.59614 10.1074C4.59614 9.88027 4.91555 9.43011 5.3064 9.10751C5.90328 8.61422 6.2568 8.75234 7.52337 9.9748L9.03054 11.429L11.436 8.44076C13.9706 5.29191 14.3093 5.07532 15.1403 6.07247Z" fill="#52A606"/>
</svg>
