<svg width="19" height="25" viewBox="0 0 19 25" fill="none" xmlns="http://www.w3.org/2000/svg">
<path id="Vector" fill-rule="evenodd" clip-rule="evenodd" d="M8.00292 6.11847C8.00292 5.57957 7.6856 5.45338 7.294 5.83842L2.57979 10.4745C1.16997 11.8611 -0.944909 9.78101 0.464918 8.39442L8.42031 0.436407C8.99952 -0.143186 9.94244 -0.146258 10.5237 0.431962L18.5314 8.39443C19.9412 9.78102 17.8266 11.8611 16.4165 10.4745L11.7026 5.83844C11.3086 5.45101 10.9937 5.57891 10.9937 6.11848V20.5875C10.9937 21.4 11.6657 22.0586 12.4945 22.0586H17.5002C18.3284 22.0586 19 22.7172 19 23.5293C19 24.3414 18.3284 25 17.5002 25H1.4996C0.671424 25 0.00014788 24.3414 0.00014788 23.5293C0.00014788 22.7172 0.671407 22.0586 1.4996 22.0586H6.50286C7.33139 22.0586 8.00303 21.4041 8.00303 20.5875L8.00292 6.11847Z" fill="#222222"/>
</svg>
