<svg width="22" height="22" viewBox="0 0 27 22" fill="none" xmlns="http://www.w3.org/2000/svg">
<g id="Group 32">
<path id="Vector" d="M18.0454 20.9948V18.7732C18.0454 17.5948 17.5666 16.4647 16.7141 15.6314C15.8617 14.7982 14.7055 14.3301 13.5 14.3301H5.54545C4.33992 14.3301 3.18377 14.7982 2.33133 15.6314C1.47889 16.4647 1 17.5948 1 18.7732V20.9948" stroke="#fff" stroke-width="2" stroke-linecap="round" stroke-linejoin="round"/>
<path id="Vector_2" d="M9.52202 9.88628C12.0324 9.88628 14.0675 7.89702 14.0675 5.44314C14.0675 2.98926 12.0324 1 9.52202 1C7.01163 1 4.97656 2.98926 4.97656 5.44314C4.97656 7.89702 7.01163 9.88628 9.52202 9.88628Z" stroke="#fff" stroke-width="2" stroke-linecap="round" stroke-linejoin="round"/>
<path id="Vector_3" d="M19.1826 9.88563L21.4553 12.1072L26.0008 7.66406" stroke="#fff" stroke-width="2" stroke-linecap="round" stroke-linejoin="round"/>
</g>
</svg>
