<svg width="405" height="405" viewBox="0 0 405 405" fill="none" xmlns="http://www.w3.org/2000/svg">
<path opacity="0.5" d="M356 202.5C356 287.264 287.264 356 202.5 356C117.736 356 49 287.264 49 202.5C49 117.736 117.736 49 202.5 49C287.264 49 356 117.736 356 202.5Z" fill="#8974F6" fill-opacity="0.1"/>
<path d="M2.46139 204.921C1.81897 150.316 23.3646 95.6117 66.5054 55.6831C109.597 15.7544 165.783 -1.54141 220.191 3.252L221.624 1.91776C217.836 1.55537 214.031 1.29181 210.209 1.12709C156.394 -0.948414 105.05 18.077 65.5665 54.6453C26.0826 91.2631 3.20264 141.026 1.12714 194.791C0.99536 198.613 0.962417 202.434 1.02831 206.256L2.46139 204.921Z" fill="#8974F6"/>
<path d="M375.261 101.443L376.348 100.455C369.034 88.051 360.337 76.3392 350.355 65.5664C336.073 50.1978 319.865 37.3495 302.173 27.2685L301.037 28.3063C318.58 38.1896 334.887 50.9391 349.317 66.5053C359.398 77.377 368.046 89.1382 375.261 101.443Z" fill="#8974F6"/>
<path d="M401.007 177.545C408.666 239.365 387.566 303.854 338.495 349.317C257.55 424.331 130.648 419.489 55.6832 338.495C41.2535 322.928 29.7888 305.682 21.2892 287.447L20.1526 288.485C28.8499 306.917 40.4134 324.065 54.6454 339.434C91.2138 378.917 141.026 401.797 194.791 403.873C248.606 405.948 299.95 386.923 339.434 350.355C378.918 313.737 401.798 263.974 403.873 210.209C404.318 198.744 403.774 187.428 402.341 176.309L401.007 177.545Z" fill="#8974F6"/>
<path d="M57.0174 122.741C63.1451 111.623 70.6564 100.998 79.5514 91.1643C139.691 24.7483 241.737 18.3735 309.635 75.8945L310.525 74.9062C278.058 47.3317 236.943 33.3962 194.247 35.5211C149.624 37.6954 108.559 57.1656 78.5631 90.2747C69.4704 100.257 61.7614 111.178 55.4855 122.741H57.0174Z" fill="#8974F6"/>
<path d="M36.9543 192.963H35.5706C35.2247 198.843 35.1753 204.773 35.4718 210.753C37.5967 253.498 55.5844 292.982 86.1733 322.583L87.0628 321.644C51.2357 286.953 34.3352 239.563 36.9543 192.963Z" fill="#8974F6"/>
<path d="M349.564 122.741C347.884 119.645 346.105 116.614 344.227 113.649L343.239 114.687C344.886 117.355 346.451 120.04 347.933 122.741H349.564Z" fill="#8974F6"/>
<path d="M369.43 192.963H367.997C370.467 235.807 356.482 279.59 325.449 313.836C274.599 369.973 193.803 383.167 129.018 351.244L128.079 352.282C153.429 364.933 181.696 370.961 210.753 369.479C255.376 367.305 296.441 347.834 326.437 314.725C356.433 281.616 371.703 238.821 369.479 194.247C369.479 193.819 369.463 193.391 369.43 192.963Z" fill="#8974F6"/>
<path d="M270.201 368.688C272.622 367.651 275.093 366.563 277.465 365.427L276.922 364.241C274.55 365.377 272.079 366.465 269.657 367.453L270.201 368.688Z" fill="#8974F6"/>
<path d="M57.3633 309.24L56.2761 310.031C57.8575 312.156 59.4882 314.28 61.1684 316.307L62.2061 315.466C60.526 313.44 58.8952 311.365 57.3633 309.24Z" fill="#8974F6"/>
<path d="M48.4684 296.194L47.3318 296.886C48.7155 299.159 50.1979 301.383 51.6804 303.557L52.7676 302.816C51.2851 300.641 49.852 298.418 48.4684 296.194Z" fill="#8974F6"/>
<path d="M29.2946 253.004L28.0098 253.399C28.751 255.919 29.5911 258.489 30.4312 260.96L31.6666 260.565C30.8265 258.094 30.0359 255.524 29.2946 253.004Z" fill="#8974F6"/>
<path d="M78.3654 332.762L77.4265 333.751C79.3538 335.53 81.3798 337.358 83.3565 339.088L84.246 338.05C82.2199 336.37 80.2433 334.591 78.3654 332.762Z" fill="#8974F6"/>
<path d="M40.8087 282.407L39.6227 283C40.8087 285.372 42.0441 287.744 43.3289 290.066L44.5149 289.424C43.2301 287.101 41.9947 284.779 40.8087 282.407Z" fill="#8974F6"/>
<path d="M34.3846 267.977L33.1492 268.471C34.1375 270.942 35.1753 273.413 36.213 275.785L37.4484 275.241C36.3613 272.869 35.3729 270.399 34.3846 267.977Z" fill="#8974F6"/>
<path d="M255.228 374.173C257.748 373.333 260.268 372.493 262.788 371.604L262.294 370.319C259.873 371.258 257.353 372.098 254.832 372.889L255.228 374.173Z" fill="#8974F6"/>
<path d="M223.996 379.708L224.194 381.042C226.813 380.697 229.432 380.301 232.051 379.807L231.804 378.522C229.234 378.967 226.615 379.412 223.996 379.708Z" fill="#8974F6"/>
<path d="M239.563 376.99L239.859 378.275C242.429 377.682 245.048 377.089 247.618 376.397L247.272 375.112C244.702 375.804 242.132 376.397 239.563 376.99Z" fill="#8974F6"/>
<path d="M90.3242 343.09L89.5336 344.128C91.6091 345.759 93.734 347.34 95.8589 348.922L96.6496 347.834C94.5246 346.302 92.3997 344.721 90.3242 343.09Z" fill="#8974F6"/>
<path d="M103.173 352.282L102.431 353.418C104.655 354.852 106.928 356.235 109.201 357.619L109.893 356.482C107.62 355.148 105.396 353.715 103.173 352.282Z" fill="#8974F6"/>
<path d="M136.035 369.133C134.355 368.507 132.691 367.848 131.044 367.156L130.549 368.392C132.427 369.182 134.305 369.924 136.232 370.665L136.035 369.133Z" fill="#8974F6"/>
<path d="M116.812 360.337L116.169 361.523C118.492 362.758 120.913 363.944 123.285 365.081L123.829 363.895C121.457 362.758 119.085 361.572 116.812 360.337Z" fill="#8974F6"/>
<path d="M67.3455 321.495L66.3572 322.385C68.0868 324.312 69.9152 326.289 71.7436 328.167L72.7319 327.228C70.9035 325.399 69.0751 323.423 67.3455 321.495Z" fill="#8974F6"/>
<path d="M62.6509 89.1876L61.6132 88.3475C59.933 90.423 58.3023 92.4985 56.7209 94.6234L57.7587 95.4141C59.34 93.3386 60.9708 91.2137 62.6509 89.1876Z" fill="#8974F6"/>
<path d="M83.8507 65.6652C81.874 67.3948 79.8479 69.1738 77.9207 70.9528L78.8596 71.9412C80.7374 70.1622 82.7141 68.3832 84.7402 66.6536L83.8507 65.6652Z" fill="#8974F6"/>
<path d="M72.2377 76.5369C70.4093 78.4148 68.5809 80.342 66.8019 82.3187L67.7902 83.2082C69.5198 81.2315 71.3482 79.3042 73.1766 77.4264L72.2377 76.5369Z" fill="#8974F6"/>
<path d="M95.2659 56.7208C93.4869 57.9562 91.7079 59.2905 90.0277 60.6247L90.8184 61.6625C92.3338 60.4765 93.8822 59.3234 95.4635 58.2033L95.2659 56.7208Z" fill="#8974F6"/>
<path d="M169.391 26.6755L169.193 25.3907C166.821 25.786 164.449 26.2802 162.127 26.7743L162.275 28.1086C164.647 27.565 167.019 27.1202 169.391 26.6755Z" fill="#8974F6"/>
<path d="M208.331 381.092L208.529 382.426C211.099 382.278 213.718 382.13 216.287 381.932L216.139 380.598C213.569 380.795 210.95 380.993 208.331 381.092Z" fill="#8974F6"/>
<path d="M52.0757 101.097C50.5932 103.271 49.1107 105.544 47.7271 107.768L48.8636 108.46C50.2473 106.236 51.6804 104.013 53.1629 101.838L52.0757 101.097Z" fill="#8974F6"/>
<path d="M43.6749 114.637C42.39 116.96 41.1052 119.282 39.9192 121.654L41.1052 122.247C42.2912 119.925 43.5266 117.553 44.8114 115.28L43.6749 114.637Z" fill="#8974F6"/>
<path d="M26.0331 158.964C25.3907 161.534 24.7977 164.153 24.2542 166.722L25.5884 167.019C26.0826 164.449 26.6756 161.83 27.318 159.26L26.0331 158.964Z" fill="#8974F6"/>
<path d="M36.5095 128.869C35.4223 131.291 34.3352 133.761 33.3962 136.183L34.6317 136.677C35.5706 134.256 36.6083 131.785 37.6955 129.413L36.5095 128.869Z" fill="#8974F6"/>
<path d="M30.5795 143.694C29.7394 146.165 28.8993 148.735 28.1581 151.255L29.4429 151.65C30.1842 149.13 30.9748 146.61 31.8643 144.089L30.5795 143.694Z" fill="#8974F6"/>
<path d="M373.235 254.091C373.976 251.571 374.668 248.952 375.31 246.431L374.025 246.086C373.432 248.655 372.691 251.225 371.95 253.745L373.235 254.091Z" fill="#8974F6"/>
<path d="M364.043 130.105L365.279 129.561C364.191 127.14 363.055 124.718 361.869 122.346L360.683 122.939C361.869 125.311 363.005 127.683 364.043 130.105Z" fill="#8974F6"/>
<path d="M339.335 89.8794L340.373 89.0393C338.692 86.9638 336.963 84.9378 335.233 82.9611L334.245 83.8506C335.974 85.7778 337.704 87.8039 339.335 89.8794Z" fill="#8974F6"/>
<path d="M284.581 361.918C286.904 360.683 289.276 359.348 291.549 358.014L290.857 356.878C288.584 358.212 286.261 359.497 283.988 360.732L284.581 361.918Z" fill="#8974F6"/>
<path d="M348.773 102.53L349.861 101.789C348.378 99.5651 346.846 97.3908 345.265 95.3153L344.178 96.1059C345.759 98.1814 347.291 100.356 348.773 102.53Z" fill="#8974F6"/>
<path d="M201.265 23.9082V22.5739C198.596 22.5739 195.928 22.6233 193.309 22.7222L193.358 24.0564C195.977 23.9576 198.646 23.9082 201.265 23.9082Z" fill="#8974F6"/>
<path d="M177.199 25.4895L177.594 25.4401C180.213 25.0942 182.832 24.7977 185.451 24.6L185.353 23.2658C182.733 23.4634 180.065 23.7599 177.446 24.1058L177.051 24.1553L177.199 25.4895Z" fill="#8974F6"/>
<path d="M217.029 24.6494L217.127 23.3152C214.508 23.0681 211.84 22.9198 209.221 22.7716L209.122 24.1058C211.79 24.2047 214.41 24.4023 217.029 24.6494Z" fill="#8974F6"/>
<path d="M263.184 35.1752L263.678 33.9397C261.158 33.0008 258.637 32.1113 256.117 31.3207L255.722 32.5561C258.193 33.3468 260.713 34.2362 263.184 35.1752Z" fill="#8974F6"/>
<path d="M248.112 30.2829L248.458 28.9981C245.937 28.3062 243.318 27.6638 240.749 27.0708L240.452 28.3557C243.022 28.9487 245.591 29.5911 248.112 30.2829Z" fill="#8974F6"/>
<path d="M232.694 26.7743L232.941 25.4401C230.322 24.9953 227.653 24.5506 225.034 24.2047L224.886 25.5389C227.456 25.8848 230.124 26.2802 232.694 26.7743Z" fill="#8974F6"/>
<path d="M357.026 115.971L358.163 115.329C356.878 113.006 355.543 110.684 354.16 108.46L353.023 109.152C354.407 111.376 355.741 113.649 357.026 115.971Z" fill="#8974F6"/>
<path d="M334.492 322.978C336.271 321.051 338.001 319.024 339.681 316.949L338.643 316.109C337.012 318.135 335.283 320.161 333.504 322.138L334.492 322.978Z" fill="#8974F6"/>
<path d="M344.622 310.722C346.204 308.598 347.736 306.423 349.268 304.249L348.18 303.508C346.649 305.633 345.117 307.807 343.535 309.932L344.622 310.722Z" fill="#8974F6"/>
<path d="M353.616 297.578C355 295.305 356.384 293.031 357.668 290.709L356.482 290.066C355.198 292.34 353.863 294.662 352.48 296.886L353.616 297.578Z" fill="#8974F6"/>
<path d="M298.319 353.863C300.493 352.43 302.717 350.948 304.891 349.416L304.101 348.329C301.976 349.86 299.752 351.343 297.578 352.776L298.319 353.863Z" fill="#8974F6"/>
<path d="M361.424 283.692C362.61 281.32 363.747 278.898 364.834 276.477L363.648 275.933C362.561 278.355 361.424 280.727 360.238 283.099L361.424 283.692Z" fill="#8974F6"/>
<path d="M311.266 344.672C313.342 343.041 315.417 341.361 317.394 339.631L316.554 338.643C314.577 340.323 312.502 342.003 310.426 343.634L311.266 344.672Z" fill="#8974F6"/>
<path d="M323.324 334.344C325.3 332.565 327.178 330.687 329.056 328.809L328.117 327.87C326.289 329.748 324.362 331.576 322.434 333.405L323.324 334.344Z" fill="#8974F6"/>
<path d="M377.287 175.469L378.621 175.271C378.226 172.652 377.732 170.033 377.237 167.464L375.953 167.711C376.447 170.28 376.891 172.899 377.287 175.469Z" fill="#8974F6"/>
<path d="M367.947 269.163C368.935 266.692 369.874 264.172 370.764 261.701L369.528 261.256C368.639 263.727 367.7 266.248 366.761 268.669L367.947 269.163Z" fill="#8974F6"/>
<path d="M369.825 144.831L371.06 144.386C370.22 141.866 369.281 139.345 368.342 136.924L367.107 137.369C368.046 139.84 368.985 142.31 369.825 144.831Z" fill="#8974F6"/>
<path d="M374.223 160.002L375.508 159.656C374.915 157.086 374.223 154.516 373.482 151.996L372.197 152.342C372.938 154.862 373.63 157.432 374.223 160.002Z" fill="#8974F6"/>
<path d="M380.351 191.085C380.153 188.466 379.955 185.797 379.659 183.178L378.325 183.326C378.621 185.945 378.868 188.564 379.016 191.184L380.351 191.085Z" fill="#8974F6"/>
<path d="M377.089 238.624C377.633 236.054 378.127 233.385 378.522 230.816L377.237 230.569C376.793 233.188 376.348 235.807 375.804 238.376L377.089 238.624Z" fill="#8974F6"/>
<path d="M379.609 222.909C379.906 220.29 380.104 217.621 380.301 214.953L378.967 214.904C378.819 217.523 378.572 220.142 378.275 222.761L379.609 222.909Z" fill="#8974F6"/>
<path d="M380.647 206.997C380.746 204.378 380.746 201.709 380.697 199.041L379.362 199.09C379.412 201.709 379.412 204.378 379.362 206.997H380.647Z" fill="#8974F6"/>
<path d="M177.938 159.863L170.33 152.255L129.678 152.404L129.753 254.741H274.159V159.863H177.938Z" fill="#F76031"/>
<path d="M262.076 241.166H141.24V166.576H262.076V241.166Z" fill="#F1F2F2"/>
<path d="M255.997 245.716H135.161V171.126H255.997V245.716Z" fill="white"/>
<path d="M274.122 254.741H123.748L116.14 176.757H266.551L274.122 254.741Z" fill="#FFD11D"/>
<path d="M297.096 221.325C297.096 221.325 295.007 222.108 291.688 222.108C289.637 222.108 287.511 221.847 285.385 221.25C277.702 219.199 275.278 214.686 275.129 214.388L272.406 208.57L269.199 214.09C269.087 214.313 266.215 218.528 258.383 221.25C256.519 221.884 254.542 222.22 252.528 222.22C249.358 222.22 247.158 221.399 247.12 221.362L242.458 219.535L242.608 229.194C242.831 240.606 242.906 241.837 242.906 242.21C243.876 271.636 269.647 282.377 269.908 282.451L272.145 283.384L274.383 282.414C275.502 281.967 301.347 270.741 301.497 241.837C301.534 241.166 301.571 239.04 301.683 229.12L301.72 224.495L301.758 219.423L297.096 221.325Z" fill="white"/>
<path d="M284.527 224.532C274.98 221.959 272.108 215.843 272.108 215.843C272.108 215.843 269.013 221.138 259.465 224.42C252.118 226.956 245.89 224.495 245.89 224.495L246.002 229.157C246.188 240.084 246.263 241.651 246.3 242.061C247.158 269.361 270.915 279.244 271.138 279.356L272.108 279.729L273.078 279.319C274.122 278.908 298.065 268.503 298.103 241.725C298.14 241.203 298.215 239.338 298.289 229.082L298.326 224.458C298.326 224.458 292.807 226.733 284.527 224.532Z" fill="#F76031"/>
<path opacity="0.3" d="M284.527 224.532C274.98 221.959 272.108 215.843 272.108 215.843V279.729L273.078 279.319C274.122 278.908 298.065 268.503 298.103 241.725C298.14 241.203 298.215 239.338 298.289 229.082L298.327 224.458C298.327 224.458 292.807 226.733 284.527 224.532Z" fill="white"/>
<path fill-rule="evenodd" clip-rule="evenodd" d="M272.406 253.921C267.782 253.921 264.015 250.415 264.015 246.089V239.823C264.015 235.497 267.782 233.297 272.406 233.297C277.031 233.297 280.798 235.497 280.798 239.823V246.089C280.798 250.415 277.031 253.921 272.406 253.921ZM272.406 235.833C269.087 235.833 266.365 237.175 266.365 240.196V245.865C266.365 248.886 269.087 251.385 272.406 251.385C275.763 251.385 278.448 248.886 278.448 245.865V240.196C278.448 237.175 275.763 235.833 272.406 235.833Z" fill="white"/>
<path d="M283.371 245.119H261.106C261.031 245.119 260.957 245.119 260.882 245.119V261.193H283.371V245.119Z" fill="#FFD11D"/>
<path d="M260.882 261.193V262.238H283.371V261.193H260.882Z" fill="white"/>
<path d="M271.25 250.602H272.966V248.961H271.25V250.602Z" fill="white"/>
<path d="M267.856 250.602H269.572V248.961H267.856V250.602Z" fill="white"/>
<path d="M274.681 250.602H276.397V248.961H274.681V250.602Z" fill="white"/>
<path d="M271.25 253.809H272.966V252.205H271.25V253.809Z" fill="white"/>
<path d="M267.856 253.809H269.572V252.205H267.856V253.809Z" fill="white"/>
<path d="M274.681 253.809H276.397V252.205H274.681V253.809Z" fill="white"/>
<path d="M271.25 257.054H272.966V255.45H271.25V257.054Z" fill="white"/>
<path d="M267.856 257.054H269.572V255.45H267.856V257.054Z" fill="white"/>
<path d="M274.681 257.054H276.397V255.45H274.681V257.054Z" fill="white"/>
</svg>
