<svg width="17" height="16" viewBox="0 0 17 16" fill="none" xmlns="http://www.w3.org/2000/svg">
<path d="M9.75 11.9977H7.25C6.83437 11.9977 6.5 11.6633 6.5 11.2477V5.99766H3.75938C3.20313 5.99766 2.925 5.32578 3.31875 4.93203L8.07188 0.175781C8.30625 -0.0585938 8.69063 -0.0585938 8.925 0.175781L13.6812 4.93203C14.075 5.32578 13.7969 5.99766 13.2406 5.99766H10.5V11.2477C10.5 11.6633 10.1656 11.9977 9.75 11.9977ZM16.5 11.7477V15.2477C16.5 15.6633 16.1656 15.9977 15.75 15.9977H1.25C0.834375 15.9977 0.5 15.6633 0.5 15.2477V11.7477C0.5 11.332 0.834375 10.9977 1.25 10.9977H5.5V11.2477C5.5 12.2133 6.28438 12.9977 7.25 12.9977H9.75C10.7156 12.9977 11.5 12.2133 11.5 11.2477V10.9977H15.75C16.1656 10.9977 16.5 11.332 16.5 11.7477ZM12.625 14.4977C12.625 14.1539 12.3438 13.8727 12 13.8727C11.6562 13.8727 11.375 14.1539 11.375 14.4977C11.375 14.8414 11.6562 15.1227 12 15.1227C12.3438 15.1227 12.625 14.8414 12.625 14.4977ZM14.625 14.4977C14.625 14.1539 14.3438 13.8727 14 13.8727C13.6562 13.8727 13.375 14.1539 13.375 14.4977C13.375 14.8414 13.6562 15.1227 14 15.1227C14.3438 15.1227 14.625 14.8414 14.625 14.4977Z" fill="#DDDDDD"/>
</svg>
