<svg width="16" height="18" viewBox="0 0 16 18" fill="none" xmlns="http://www.w3.org/2000/svg">
<path d="M2.375 7.875H2.84961C3.71797 9.86133 5.69375 11.25 8 11.25C10.3062 11.25 12.282 9.86133 13.1504 7.875H13.625C13.9344 7.875 14.1875 7.62187 14.1875 7.3125V3.9375C14.1875 3.62812 13.9344 3.375 13.625 3.375H13.1504C12.282 1.38867 10.3062 0 8 0C5.69375 0 3.71797 1.38867 2.84961 3.375H2.375C2.06562 3.375 1.8125 3.62812 1.8125 3.9375V7.3125C1.8125 7.62187 2.06562 7.875 2.375 7.875ZM3.78125 4.78125C3.78125 4.0043 4.53711 3.375 5.46875 3.375H10.5312C11.4629 3.375 12.2188 4.0043 12.2188 4.78125V5.625C12.2188 7.48828 10.707 9 8.84375 9H7.15625C5.29297 9 3.78125 7.48828 3.78125 5.625V4.78125ZM6.3125 7.3125L6.73438 6.04688L8 5.625L6.73438 5.20312L6.3125 3.9375L5.89062 5.20312L4.625 5.625L5.89062 6.04688L6.3125 7.3125ZM11.6422 11.2992C10.591 11.9777 9.34297 12.375 8 12.375C6.65703 12.375 5.40898 11.9777 4.35781 11.2992C1.98477 11.5488 0.125 13.5352 0.125 15.975V16.3125C0.125 17.2441 0.880859 18 1.8125 18H4.625V15.75C4.625 15.1277 5.12773 14.625 5.75 14.625H10.25C10.8723 14.625 11.375 15.1277 11.375 15.75V18H14.1875C15.1191 18 15.875 17.2441 15.875 16.3125V15.975C15.875 13.5352 14.0152 11.5488 11.6422 11.2992ZM9.6875 15.75C9.37813 15.75 9.125 16.0031 9.125 16.3125C9.125 16.6219 9.37813 16.875 9.6875 16.875C9.99687 16.875 10.25 16.6219 10.25 16.3125C10.25 16.0031 9.99687 15.75 9.6875 15.75ZM6.3125 15.75C6.00313 15.75 5.75 16.0031 5.75 16.3125V18H6.875V16.3125C6.875 16.0031 6.62187 15.75 6.3125 15.75Z" fill="#DDDDDD"/>
</svg>
