<svg width="34" height="31" viewBox="0 0 34 31" fill="none" xmlns="http://www.w3.org/2000/svg">
<path fill-rule="evenodd" clip-rule="evenodd" d="M7.31023 0.364575C3.95024 1.3116 1.39486 3.94956 0.338486 7.56103C-0.149172 9.22828 -0.104995 12.0629 0.439278 14.0355C1.83727 19.1017 6.15413 24.0429 12.8612 28.2536C15.5329 29.9309 16.633 30.4018 17.378 30.1872C19.4002 29.6049 25.2148 25.4862 28.0558 22.6242C34.6446 15.9864 35.764 7.91662 30.7881 2.92952C27.1198 -0.746995 21.4583 -0.99339 17.7552 2.36221L16.9641 3.079L15.8226 2.14533C14.0928 0.730288 12.6888 0.204764 10.3972 0.11452C9.11246 0.0639064 8.08032 0.147473 7.31023 0.364575ZM14.1282 5.38226C13.3532 4.50847 12.7602 4.06134 12.0568 3.82076C8.97457 2.76584 5.51958 4.24721 4.07569 7.24292C3.39288 8.65968 3.24899 11.0646 3.73343 12.9638C4.83463 17.2809 9.30224 22.1463 15.5341 25.8153C16.803 26.5622 16.8155 26.5648 17.5609 26.2077C19.2668 25.3907 22.7386 22.851 24.6251 21.0399C27.0983 18.6653 28.308 17.1114 29.2739 15.0668C31.1225 11.1546 30.7131 7.55393 28.1525 5.20349C25.3997 2.67667 21.1664 2.96442 19.2248 5.81022C18.1609 7.36956 17.6735 7.79106 16.9341 7.79106C16.4773 7.79106 16.1014 7.60454 15.7407 7.19877C15.4509 6.8729 14.7255 6.05553 14.1282 5.38226Z" fill="#2F2F2F"/>
</svg>
