<svg width="34" height="34" viewBox="0 0 34 34" fill="none" xmlns="http://www.w3.org/2000/svg">
<path fill-rule="evenodd" clip-rule="evenodd" d="M11.2409 0.316884C6.58095 1.44267 2.31041 5.42783 0.741502 10.1143C-0.0363049 12.4378 -0.222876 15.6532 0.280222 18.062C0.685102 20.0008 1.963 22.6668 3.29902 24.3601C5.96356 27.737 10.5206 29.9102 14.9288 29.9063C17.8112 29.9037 21.4135 28.7674 23.483 27.2078L24.1448 26.709L27.4503 30.0461C30.7573 33.3847 31.5218 34 32.3633 34C33.0569 34 33.8653 33.0564 33.8653 32.2468C33.8653 31.6347 33.4283 31.1085 30.2343 27.8757L26.6032 24.2003L27.1087 23.5709C27.3868 23.2246 27.918 22.3153 28.2896 21.55C30.2619 17.4873 30.3053 12.4483 28.402 8.47415C26.4602 4.41921 22.6541 1.30289 18.425 0.305253C16.6787 -0.106551 12.969 -0.100736 11.2409 0.316884ZM18.0107 3.75972C21.9134 4.91113 25.0352 8.09207 26.0313 11.9327C26.4424 13.5179 26.4503 16.3006 26.048 17.8184C24.9942 21.7947 21.679 25.082 17.6633 26.1326C12.6623 27.4408 7.04374 24.8666 4.71932 20.2024C3.65265 18.062 3.33098 16.5147 3.46865 14.1851C3.7528 9.37249 6.72528 5.49503 11.3482 3.90639C13.0878 3.3085 16.2455 3.23893 18.0107 3.75972Z" fill="#2F2F2F"/>
</svg>
