<svg width="31" height="34" viewBox="0 0 31 34" fill="none" xmlns="http://www.w3.org/2000/svg">
<path fill-rule="evenodd" clip-rule="evenodd" d="M11.8605 17.7277C7.94639 18.5851 4.13906 21.2771 2.13417 24.6052C0.617584 27.1221 -0.418202 31.4852 0.164885 32.8992C0.303205 33.2345 0.655763 33.6186 0.948271 33.7523C1.3257 33.9253 5.4828 33.9957 15.2898 33.9957H29.0997L29.7014 33.4747C30.2596 32.9912 30.2999 32.8501 30.2579 31.5203C30.1957 29.549 29.7113 27.7562 28.657 25.5959C27.9425 24.1318 27.3931 23.393 25.9134 21.9065C24.3548 20.3409 23.7438 19.894 22.0363 19.071C20.9216 18.5336 19.315 17.9405 18.4662 17.7527C16.6311 17.3471 13.6495 17.3357 11.8605 17.7277ZM23.4605 24.4049C21.746 22.6978 19.9871 21.6708 17.9524 21.1893C14.0112 20.2562 9.70487 21.4542 6.91017 24.2608C5.31102 25.8669 4.25937 27.7547 3.73654 29.9573L3.59607 30.5496H15.1006H26.6052L26.4611 29.6455C26.1924 27.9571 25.0834 26.0206 23.4605 24.4049Z" fill="#2F2F2F"/>
<path fill-rule="evenodd" clip-rule="evenodd" d="M12.159 0.46054C9.32059 1.66235 7.62578 3.75627 7.03004 6.79785C5.97388 12.1892 11.0004 17.2885 16.4343 16.3381C19.2052 15.8535 21.4942 14.1229 22.6559 11.634C23.1601 10.5536 23.2263 10.1489 23.2263 8.15022C23.2263 6.08387 23.1718 5.7776 22.5958 4.59926C21.7934 2.95743 20.3546 1.51202 18.7274 0.712318C17.6393 0.177747 17.1482 0.0750113 15.406 0.0181512C13.6456 -0.0393549 13.1946 0.0222436 12.159 0.46054ZM19.8605 7.71601C19.7518 6.20491 19.0272 4.98371 17.7261 4.11897C16.6252 3.38732 14.4513 3.2049 13.2544 3.74378C11.5045 4.53185 10.4237 6.21525 10.4237 8.1528C10.4237 10.8864 12.4365 12.8886 15.1845 12.8886C18.1241 12.8886 20.0776 10.7279 19.8605 7.71601Z" fill="#2F2F2F"/>
</svg>
