<svg width="32" height="22" viewBox="0 0 32 22" fill="none" xmlns="http://www.w3.org/2000/svg">
<path d="M14.3328 16.8606C12.5744 14.3646 10.8243 11.8937 9.08243 9.44798C7.34059 7.00223 5.59046 4.53134 3.83204 2.03534H5.82271L14.9798 15.0012C16.4894 12.8402 17.9824 10.6876 19.4588 8.54339C20.9518 6.38241 22.4448 4.21306 23.9378 2.03534H25.804L15.5272 16.8606H14.3328ZM23.1913 0.62819C21.8144 2.6384 20.4458 4.64023 19.0855 6.63369C17.7252 8.62714 16.3401 10.6206 14.93 12.6141L6.49456 0.62819H1.21928L13.661 18.2678H16.2737L28.4666 0.62819H23.1913ZM32 2.58814L19.0607 21.3333H15.8507L13.3375 18.896L0 0H7.31571L9.28149 2.58814L15.2286 11.1064C15.7429 10.3861 16.2571 9.649 16.7714 8.89517C17.3022 8.12459 17.8663 7.30376 18.4635 6.43267C19.0772 5.54482 19.7408 4.5816 20.4541 3.54299C21.1674 2.48763 21.972 1.30664 22.8678 0H29.6361L32 2.58814Z" fill="#2F2F2F"/>
</svg>
